# xmcd CD database file
#
# Track frame offsets:
#	182
#	13745
#	31392
#	49377
#	64187
#	85010
#	101667
#	121575
#	136235
#	151522
#	167350
#	184592
#	202662
#	219477
#	238070
#	249302
#
# Disc length: 3554 seconds
#
# Revision: 0
# Processed by: cddbd v1.5PL3 Copyright (c) Steve Scherf et al.
# Submitted via: CDex 1.51
#
DISCID=c20de010
DTITLE=Various Artist - 1998 Country Music Festival Sampler
DYEAR=1998
DGENRE=Country
TTITLE0=Tim McGraw/Indian Outlaw
TTITLE1=Lila McCann/Down Came A Blackbird
TTITLE2=John Michael Montgomery/Love Working On You
TTITLE3=Faith Hill/It Matters To Me
TTITLE4=Tim McGraw/One Of These Days
TTITLE5=Lila McCann/I Wanna Fall In Love
TTITLE6=John Michael Montgomery/I Swear
TTITLE7=Faith Hill/The Kiss
TTITLE8=Tim McGraw/I Like It, I Love It
TTITLE9=Lila McCann/Almost Over You
TTITLE10=John Michael Montgomery/I Can Love You Like That
TTITLE11=Faith Hill/Piece Of My Heart
TTITLE12=Tim McGraw with Faith Hill/It's Your Love
TTITLE13=Lila McCann/Yippy Ky Yay
TTITLE14=John Michael Montgomery/Sold (The Grundy Country Auction Incident)
TTITLE15=Faith Hill/Love Ain't Like That
EXTD=YEAR: 1998
EXTT0=
EXTT1=
EXTT2=
EXTT3=
EXTT4=
EXTT5=
EXTT6=
EXTT7=
EXTT8=
EXTT9=
EXTT10=
EXTT11=
EXTT12=
EXTT13=
EXTT14=
EXTT15=
PLAYORDER=
